<?xml version="1.0" encoding="UTF-8"?><svg id="Layer_2" xmlns="http://www.w3.org/2000/svg" viewBox="0 0 1452 562.64"><defs><style>.cls-1{fill:#fff;}</style></defs><g id="Layer_1-2"><path class="cls-1" d="M0,562.64V0l304,103.99v51.02l30,7.33v95.18l-30-1.47v50.52l30-1.47v95.18l-30,7.33v51.02L0,562.64ZM134,247.54l135,6.6v-107.59l-135-32.99v133.98ZM134,449.08l135-32.99v-107.59l-135,6.6v133.98Z"/><path class="cls-1" d="M385,430.89V131.79l41,14.02v232.3l63-15.39v32.59l-104,35.58Z"/><path class="cls-1" d="M501,391.03v-156.72l12,1.76v-30.2l11,2.69v-29.18l29,9.92v26.29l8,1.95v25.53l8,1.17v123.68l-16,5.47v-52.62l-29,4.25v58.14l-23,7.87ZM524,295.86l28-1.37v-52.64l-9-1.32v-27.24l-9-2.2v28.04l-10-1.47v58.19Z"/><path class="cls-1" d="M590,360.7v-22.72l-7,1.71v-23.24l-7,1.03v-72.31l7,1.03v-23.24l7,1.71v-22.72l23,7.87v20.45l5,1.22v19.91l-10-1.47v-20.92l-12-2.93v23.37l-6-.88v65.5l6-.88v23.37l12-2.93v-20.92l10-1.47v19.91l-5,1.22v20.45l-23,7.87Z"/><path class="cls-1" d="M623,349.41v-136.17l9,3.08v55.72l4,.2v-18.16l4,.59v-17.79l4,.98v-17.38l7,2.39v16.73l-4-.87v17.06l-4-.59v17.42l-3-.19v17.78l3-.19v17.42l4-.59v17.06l4-.87v16.71l-11,3.76v-17.76l-4,.98v-18.15l-4,.59v37.15l-9,3.08Z"/><path class="cls-1" d="M668,339.52v-117h33v50h50v-50h33v117h-33v-50h-50v50h-33Z"/><path class="cls-1" d="M801,339.11v-115.57l28-9.58v18.84l-20,4.89v35.18l16-.78v18.46l-16-.78v35.18l20,4.89v18.84l-28-9.58Z"/><path class="cls-1" d="M834,350.98v-99.56l5-.73v-20.47l5-1.22v-20.95l18-6.16v22.78l7-1.71v23.38l7-1.03v119.95l-13-4.45v-45.44l-18-2.64v42.02l-11-3.76ZM844,291.79l18,.88v-45.35l-6,.88v-22.07l-6,1.47v21.46l-6,.88v41.86Z"/><path class="cls-1" d="M883,367.74v-172.93l56-19.16v30.25l12-2.93v94.02l-23-1.12v29.11l11,1.61v30.15l12,2.93v31.32l-33-11.29v-28.16l-9-2.2v-27.24l-9-1.32v52.77l-17-5.82ZM899,294.46l19,.93v-28.13l10-.49v-58.27l-29,7.09v78.88Z"/><path class="cls-1" d="M1008,410.6v-221.67l-31,7.57v-33.92l114-39v45.11l-45,11v243.9l-38-13Z"/><path class="cls-1" d="M1118,448.25V114.4l65-21.92v161.86l135-6.6V46.82L1452,.98v560.67l-134-45.84v-200.92l-135-6.6v161.86l-65-21.92Z"/><path class="cls-1" d="M74.84,562.52l103.01-39h-31.41l80.98-29h-27.24l153.05-52h19.8l30.72-11h17.73l24.83-10h79.91l-17.74,10h-69.9l-27.4,11h-19.73l-137.35,52h25.97l-69.73,28h62.11l109.43-50h-23.56l39.77-17h63.87l-201.88,107H74.84Z"/><path class="cls-1" d="M297.92,562.52l208.29-120h19.45l17.43-11h17.59l13.48-10h47.95l-9.22,10h17.3l-9.13,11h18.93l-81.51,120h-74.52l66.71-68h-81.03l-97.51,68h-74.22ZM500.05,473.52h72.03l30.41-31h-19.79l12.45-11h-17.04l-14.11,11h-19.51l-44.45,31Z"/><path class="cls-1" d="M595.62,562.52l74.49-141h31.99l-2.26,10h17.65l-.83,11h18.7l-.83-11h17.65l-2.26-10h31.99l74.49,141h-74.47l-24.23-107h-21l2.94,39h-27.26l2.94-39h-21l-24.23,107h-74.47Z"/><path class="cls-1" d="M893.63,562.52l-95.77-141h112.28l15.62,9h-86.71l24.53,25h84.55l26.94,17h-94.82l49.05,50h156.02l69.43,40h-261.14Z"/><path class="cls-1" d="M1228.72,562.52l-80.26-40h-31.21l-52.83-28h52.94l61.28,28h94.75l-132.07-50h-95.08l-34.64-17h-21.02l-47.17-25,17.5,1-19.16-10h79.91l26.25,10h17.38l32.38,11h-37.4l-29.06-11h-51.93l52.53,24h85.56l47.47,17h23.93l147.16,50h-31.03l109.99,40h-186.19Z"/></g></svg>